# xmcd
#
# Track frame offsets:
#	150
#	9544
#	18991
#	34153
#	50941
#	65752
#	80084
#	95323
#	110745
#	124995
#	138604
#	153752
#	166755
#	193449
#	208660
#	222999
#	237869
#	250099
#	260346
#	270006
#	281039
#	293597
#
# Disc length: 4149 seconds
#
# Revision: 0
# Processed by: cddbd v1.5.2PL0 Copyright (c) Steve Scherf et al.
# Submitted via: EasyCDDAExtractor 16.0.6.1
#
DISCID=48103316
DTITLE=Συλλογικός δίσκος - Λαϊκοί συνθέτες Α2-Βαμβακάρης Μάρκος
DYEAR=2010
DGENRE=Ποικίλη
TTITLE0=Πουλόπουλος Γιάννης - Τα ματόκλαδά σου λάμπουν 
TTITLE1=Αλεξάνδρα - Αλεξανδριανή
TTITLE2=Μαργαρίτης Γιώργος - Αν μ' αξιώσει ο Θεός
TTITLE3=Γιουλάκης Νίκος - Οι βεργούλες
TTITLE4=Νικολαΐδης Απόστολος - Κάφ' τονε Σταύρο, κάφ' τονε
TTITLE5=Νταράλας Λουκάς - Η άτακτη
TTITLE6=Αρβανιτάκη Ελευθερία - Μέσ' στην χασάπικη αγορά
TTITLE7=Ζαγοραίος Σπύρος - Όσοι έχουνε πολλά λεφτά
TTITLE8=Πουλόπουλος Γιάννης - Φραγκοσυριανή
TTITLE9=Αλεξάνδρα - Ρίξε τσιγγάνα τα χαρτιά
TTITLE10=Βαμβακάρης Μάρκος-Σταύρου Σούλα - Πρέπει να ξέρεις μηχανή
TTITLE11=Λαμπράκη Χαρούλα - Μικρός αρραβωνιάστηκα
TTITLE12=Δασκαλάκης Μιχάλης - Αντιλαλούν οι φυλακές
TTITLE13=Αλεξάνδρα - Κάθε βράδυ θα σε περιμένω
TTITLE14=Κυριαζής Γιάννης - Όλοι οι ρεμπέτες του ντουνιά
TTITLE15=Γκολές Μπάμπης-Ιακωβίδης Αγάθωνας - Τα ζηλιάρικά σου μάτια
TTITLE16=Μενιδιάτης Μιχάλης - Στο Φάληρο που πλένεσαι
TTITLE17=Τσαουσάκης Πρόδρομος - Τα μπλε παράθυρά σου
TTITLE18=Ζαγοραίος Σπύρος - Χρόνια στον Πειραιά
TTITLE19=Μπαρμπεράκης Μανώλης - Τα όμορφα τα γαλανά σου μάτια
TTITLE20=Αλκαίου Λένα - Μαύρα μάτια, μαύρα φρύδια
TTITLE21=Τρίφωνο - Χαράματα η ώρα τρεις
EXTD=
EXTT0=
EXTT1=
EXTT2=
EXTT3=
EXTT4=
EXTT5=
EXTT6=
EXTT7=
EXTT8=
EXTT9=
EXTT10=
EXTT11=
EXTT12=
EXTT13=
EXTT14=
EXTT15=
EXTT16=
EXTT17=
EXTT18=
EXTT19=
EXTT20=
EXTT21=
PLAYORDER=
